<svg width="240" height="240" xmlns="http://www.w3.org/2000/svg">
    <defs>
        <linearGradient id="waffleGradient" x1="0%" y1="0%" x2="100%" y2="100%">
            <stop offset="0%" style="stop-color:#F6CA7D;stop-opacity:1" />
            <stop offset="100%" style="stop-color:#E5B667;stop-opacity:1" />
        </linearGradient>
    </defs>
     <g transform="translate(11, 11)">
           <rect width="218" height="218" rx="25" ry="25" fill="#8B4513"/> <!-- Background rectangle -->
     </g>
    <g transform="translate(15, 15)">
        <rect width="210" height="210" rx="20" ry="20" fill="url(#waffleGradient)"/>
    </g>
    <g fill="#D58A2F" transform="translate(15, 15)"> <!-- Darker shade of the current color -->
      <rect x="10" y="10" width="40" height="40"/>
      <rect x="60" y="10" width="40" height="40"/>
      <rect x="110" y="10" width="40" height="40"/>
      <rect x="160" y="10" width="40" height="40"/>

      <rect x="10" y="60" width="40" height="40"/>
      <rect x="60" y="60" width="40" height="40"/>
      <rect x="110" y="60" width="40" height="40"/>
      <rect x="160" y="60" width="40" height="40"/>

      <rect x="10" y="110" width="40" height="40"/>
      <rect x="60" y="110" width="40" height="40"/>
      <rect x="110" y="110" width="40" height="40"/>
      <rect x="160" y="110" width="40" height="40"/>

      <rect x="10" y="160" width="40" height="40"/>
      <rect x="60" y="160" width="40" height="40"/>
      <rect x="110" y="160" width="40" height="40"/>
      <rect x="160" y="160" width="40" height="40"/>
    </g>

    <g fill="#F49F2A" transform="translate(15, 15)"> <!-- Original color for shadow effect -->
      <path d="M30 20 h20 v30 h-35 v-20 q0 -10 10 -10 z"/>
      <path d="M75 20 h25 v30 h-35 v-20 q0 -10 10 -10 z"/>
      <path d="M125 20 h25 v30 h-35 v-20 q0 -10 10 -10 z"/>
      <path d="M175 20 h25 v30 h-35 v-20 q0 -10 10 -10 z"/>

      <path d="M25 70 h25 v30 h-35 v-20 q0 -10 10 -10 z"/>
      <path d="M75 70 h25 v30 h-35 v-20 q0 -10 10 -10 z"/>
      <path d="M125 70 h25 v30 h-35 v-20 q0 -10 10 -10 z"/>
      <path d="M175 70 h25 v30 h-35 v-20 q0 -10 10 -10 z"/>

      <path d="M25 120 h25 v30 h-35 v-20 q0 -10 10 -10 z"/>
      <path d="M75 120 h25 v30 h-35 v-20 q0 -10 10 -10 z"/>
      <path d="M125 120 h25 v30 h-35 v-20 q0 -10 10 -10 z"/>
      <path d="M175 120 h25 v30 h-35 v-20 q0 -10 10 -10 z"/>

      <path d="M25 170 h25 v30 h-35 v-20 q0 -10 10 -10 z"/>
      <path d="M75 170 h25 v30 h-35 v-20 q0 -10 10 -10 z"/>
      <path d="M125 170 h25 v30 h-35 v-20 q0 -10 10 -10 z"/>
      <path d="M175 170 h25 v30 h-35 v-20 q0 -10 10 -10 z"/>
    </g>
</svg>
